<svg width="171" height="40" viewBox="0 0 171 40" fill="none" xmlns="http://www.w3.org/2000/svg">
<path fill-rule="evenodd" clip-rule="evenodd" d="M32.5444 6.42311H7.23147C6.76547 6.42311 6.38771 6.80301 6.38771 7.27164V32.7275C6.38771 33.1961 6.76547 33.576 7.23147 33.576H32.5444C33.0104 33.576 33.3882 33.1961 33.3882 32.7275V7.27164C33.3882 6.80301 33.0104 6.42311 32.5444 6.42311ZM7.23147 5.85742C6.45481 5.85742 5.8252 6.49059 5.8252 7.27164V32.7275C5.8252 33.5085 6.45481 34.1417 7.23147 34.1417H32.5444C33.3211 34.1417 33.9507 33.5085 33.9507 32.7275V7.27164C33.9507 6.49059 33.3211 5.85742 32.5444 5.85742H7.23147Z" fill="#155EEF"/>
<path fill-rule="evenodd" clip-rule="evenodd" d="M35.6071 10.1806L11.1566 3.59212C10.7065 3.47083 10.2438 3.73946 10.1232 4.19212L3.57174 28.7806C3.45113 29.2332 3.71825 29.6985 4.16837 29.8198L28.6188 36.4083C29.069 36.5296 29.5316 36.2609 29.6522 35.8083L36.2037 11.2198C36.3243 10.7672 36.0572 10.3019 35.6071 10.1806ZM11.3022 3.04571C10.552 2.84356 9.78089 3.29128 9.57988 4.04571L3.0284 28.6342C2.82738 29.3886 3.27258 30.1641 4.02279 30.3662L28.4732 36.9547C29.2234 37.1568 29.9946 36.7091 30.1956 35.9547L36.747 11.3662C36.9481 10.6118 36.5029 9.83632 35.7527 9.63417L11.3022 3.04571Z" fill="#155EEF"/>
<path fill-rule="evenodd" clip-rule="evenodd" d="M37.5985 14.6066L15.6769 1.87865C15.2733 1.64433 14.7572 1.78338 14.5242 2.18923L1.86776 24.2346C1.63476 24.6405 1.77303 25.1594 2.1766 25.3937L24.0983 38.1217C24.5018 38.356 25.0179 38.2169 25.2509 37.8111L37.9074 15.7657C38.1404 15.3598 38.0021 14.8409 37.5985 14.6066ZM15.9581 1.38875C15.2855 0.998223 14.4254 1.22998 14.0371 1.90639L1.38061 23.9518C0.992276 24.6282 1.22273 25.4931 1.89534 25.8836L23.817 38.6116C24.4896 39.0021 25.3497 38.7703 25.738 38.0939L38.3945 16.0485C38.7829 15.3721 38.5524 14.5072 37.8798 14.1167L15.9581 1.38875Z" fill="#155EEF"/>
<path fill-rule="evenodd" clip-rule="evenodd" d="M37.9076 24.2346L25.2511 2.18923C25.0181 1.78338 24.5021 1.64433 24.0985 1.87865L2.17686 14.6066C1.77329 14.8409 1.63502 15.3598 1.86802 15.7657L14.5245 37.8111C14.7575 38.2169 15.2735 38.356 15.6771 38.1217L37.5988 25.3937C38.0024 25.1594 38.1406 24.6405 37.9076 24.2346ZM25.7383 1.90639C25.35 1.22998 24.4899 0.998223 23.8173 1.38875L1.89561 14.1167C1.22299 14.5072 0.992541 15.3721 1.38087 16.0485L14.0374 38.0939C14.4257 38.7703 15.2858 39.0021 15.9584 38.6116L37.88 25.8836C38.5527 25.4931 38.7831 24.6282 38.3948 23.9518L25.7383 1.90639Z" fill="#155EEF"/>
<path fill-rule="evenodd" clip-rule="evenodd" d="M36.2037 28.7806L29.6522 4.19212C29.5316 3.73946 29.0689 3.47083 28.6188 3.59212L4.16832 10.1806C3.7182 10.3019 3.45108 10.7672 3.57168 11.2198L10.1232 35.8083C10.2438 36.2609 10.7064 36.5296 11.1566 36.4083L35.607 29.8198C36.0571 29.6985 36.3243 29.2332 36.2037 28.7806ZM30.1955 4.04571C29.9945 3.29128 29.2234 2.84356 28.4732 3.04571L4.02273 9.63417C3.27253 9.83632 2.82733 10.6118 3.02834 11.3662L9.57982 35.9547C9.78084 36.7091 10.552 37.1568 11.3022 36.9547L35.7526 30.3662C36.5028 30.1641 36.948 29.3886 36.747 28.6342L30.1955 4.04571Z" fill="#155EEF"/>
<path fill-rule="evenodd" clip-rule="evenodd" d="M38.3833 19.4L20.4843 1.4C20.1548 1.06863 19.6206 1.06863 19.2911 1.4L1.39209 19.4C1.06257 19.7314 1.06258 20.2686 1.39209 20.6L19.2911 38.6C19.6206 38.9314 20.1548 38.9314 20.4843 38.6L38.3833 20.6C38.7128 20.2686 38.7128 19.7314 38.3833 19.4ZM20.8821 1C20.3329 0.447715 19.4425 0.447716 18.8933 1L0.994332 19C0.445146 19.5523 0.445146 20.4477 0.994331 21L18.8933 39C19.4425 39.5523 20.3329 39.5523 20.8821 39L38.7811 21C39.3302 20.4477 39.3302 19.5523 38.7811 19L20.8821 1Z" fill="#155EEF"/>
<path d="M171 17.4233H166.95V25.9934C166.95 26.7665 167.1 27.3228 167.4 27.6622C167.7 27.9828 168.15 28.1525 168.75 28.1713C169.35 28.1713 170.1 28.1525 171 28.1148V29.7553C169.031 30.057 167.55 29.9155 166.556 29.331C165.581 28.7464 165.094 27.6339 165.094 25.9934V17.4233H162.141V15.6131H165.094V12.219L166.95 11.6533V15.6131H171V17.4233Z" fill="#155EEF"/>
<path d="M154.445 15.2734C156.151 15.2734 157.492 15.8014 158.467 16.8574C159.461 17.8944 159.958 19.2992 159.958 21.0717V29.755H158.101V21.0717C158.101 19.8083 157.764 18.8278 157.089 18.1301C156.433 17.4325 155.495 17.0836 154.276 17.0836C152.926 17.0836 151.829 17.5173 150.986 18.3847C150.142 19.2332 149.72 20.5532 149.72 22.3445V29.755H147.864V15.6128H149.72V17.819C150.77 16.122 152.345 15.2734 154.445 15.2734Z" fill="#155EEF"/>
<path d="M143.953 12.2187C143.69 12.4827 143.372 12.6147 142.997 12.6147C142.621 12.6147 142.303 12.4827 142.04 12.2187C141.778 11.9547 141.646 11.6342 141.646 11.2571C141.646 10.8799 141.778 10.5594 142.04 10.2954C142.303 10.0314 142.621 9.89941 142.997 9.89941C143.372 9.89941 143.69 10.0314 143.953 10.2954C144.215 10.5594 144.347 10.8799 144.347 11.2571C144.347 11.6342 144.215 11.9547 143.953 12.2187ZM142.068 29.755V15.6128H143.925V29.755H142.068Z" fill="#155EEF"/>
<path d="M136.796 27.9731C135.371 29.3873 133.628 30.0944 131.565 30.0944C129.502 30.0944 127.749 29.3873 126.306 27.9731C124.88 26.54 124.168 24.777 124.168 22.6839C124.168 20.5909 124.88 18.8373 126.306 17.423C127.749 15.99 129.502 15.2734 131.565 15.2734C133.628 15.2734 135.371 15.99 136.796 17.423C138.24 18.8373 138.962 20.5909 138.962 22.6839C138.962 24.777 138.24 26.54 136.796 27.9731ZM127.627 26.672C128.696 27.7468 130.009 28.2842 131.565 28.2842C133.121 28.2842 134.434 27.7468 135.503 26.672C136.571 25.5783 137.106 24.249 137.106 22.6839C137.106 21.1189 136.571 19.7989 135.503 18.7241C134.434 17.6305 133.121 17.0836 131.565 17.0836C130.009 17.0836 128.696 17.6305 127.627 18.7241C126.559 19.7989 126.024 21.1189 126.024 22.6839C126.024 24.249 126.559 25.5783 127.627 26.672Z" fill="#155EEF"/>
<path d="M116.86 9.95605C118.623 9.95605 120.095 10.55 121.276 11.738C122.457 12.9259 123.048 14.4061 123.048 16.1786C123.048 17.9511 122.457 19.4313 121.276 20.6192C120.095 21.8072 118.623 22.4011 116.86 22.4011H111.798V29.755H109.829V9.95605H116.86ZM116.86 20.5344C118.079 20.5344 119.082 20.129 119.87 19.3182C120.676 18.4885 121.079 17.442 121.079 16.1786C121.079 14.9152 120.676 13.8781 119.87 13.0673C119.082 12.2377 118.079 11.8228 116.86 11.8228H111.798V20.5344H116.86Z" fill="#155EEF"/>
<path d="M103.761 15.6128H105.618V29.755H103.761V26.9831C102.468 29.0573 100.574 30.0944 98.0801 30.0944C96.0738 30.0944 94.3582 29.3779 92.9331 27.9448C91.5269 26.5117 90.8237 24.7581 90.8237 22.6839C90.8237 20.6097 91.5269 18.8561 92.9331 17.423C94.3582 15.99 96.0738 15.2734 98.0801 15.2734C100.574 15.2734 102.468 16.3105 103.761 18.3847V15.6128ZM94.2832 26.672C95.3519 27.7468 96.6645 28.2842 98.2207 28.2842C99.777 28.2842 101.09 27.7468 102.158 26.672C103.227 25.5783 103.761 24.249 103.761 22.6839C103.761 21.1189 103.227 19.7989 102.158 18.7241C101.09 17.6305 99.777 17.0836 98.2207 17.0836C96.6645 17.0836 95.3519 17.6305 94.2832 18.7241C93.2144 19.7989 92.68 21.1189 92.68 22.6839C92.68 24.249 93.2144 25.5783 94.2832 26.672Z" fill="#155EEF"/>
<path d="M89.425 17.4233H85.3749V25.9934C85.3749 26.7665 85.5249 27.3228 85.8249 27.6622C86.1249 27.9828 86.5749 28.1525 87.1749 28.1713C87.7749 28.1713 88.525 28.1525 89.425 28.1148V29.7553C87.4562 30.057 85.9749 29.9155 84.9811 29.331C84.0061 28.7464 83.5186 27.6339 83.5186 25.9934V17.4233H80.5654V15.6131H83.5186V12.219L85.3749 11.6533V15.6131H89.425V17.4233Z" fill="#155EEF"/>
<path d="M71.2121 19.3181C71.2121 19.9592 71.4933 20.4683 72.0558 20.8454C72.6183 21.2226 73.3027 21.5148 74.109 21.7223C74.9153 21.9297 75.7215 22.1654 76.5278 22.4294C77.334 22.6745 78.0184 23.0988 78.5809 23.7022C79.1435 24.2867 79.4247 25.0598 79.4247 26.0215C79.4247 27.2283 78.9466 28.2088 77.9903 28.963C77.0528 29.7173 75.834 30.0944 74.334 30.0944C72.984 30.0944 71.8308 29.7927 70.8746 29.1893C69.937 28.5859 69.2808 27.8034 68.9058 26.8417L70.4808 25.9083C70.7433 26.6437 71.2121 27.2283 71.8871 27.662C72.5808 28.0768 73.3965 28.2842 74.334 28.2842C75.2528 28.2842 76.0215 28.1051 76.6403 27.7468C77.259 27.3697 77.5684 26.7946 77.5684 26.0215C77.5684 25.3804 77.2872 24.8712 76.7247 24.4941C76.1622 24.117 75.4778 23.8247 74.6715 23.6173C73.8652 23.4099 73.059 23.1836 72.2527 22.9385C71.4464 22.6745 70.762 22.2502 70.1995 21.6657C69.637 21.0623 69.3558 20.2798 69.3558 19.3181C69.3558 18.1679 69.8058 17.2062 70.7058 16.4331C71.6246 15.66 72.7777 15.2734 74.1652 15.2734C75.309 15.2734 76.3122 15.5374 77.1747 16.0654C78.0372 16.5745 78.6747 17.2722 79.0872 18.1584L77.5403 19.0635C76.9965 17.7436 75.8715 17.0836 74.1652 17.0836C73.359 17.0836 72.6652 17.2816 72.0839 17.6776C71.5027 18.0547 71.2121 18.6016 71.2121 19.3181Z" fill="#155EEF"/>
<path d="M65.8385 12.2187C65.576 12.4827 65.2573 12.6147 64.8822 12.6147C64.5072 12.6147 64.1885 12.4827 63.926 12.2187C63.6635 11.9547 63.5322 11.6342 63.5322 11.2571C63.5322 10.8799 63.6635 10.5594 63.926 10.2954C64.1885 10.0314 64.5072 9.89941 64.8822 9.89941C65.2573 9.89941 65.576 10.0314 65.8385 10.2954C66.101 10.5594 66.2323 10.8799 66.2323 11.2571C66.2323 11.6342 66.101 11.9547 65.8385 12.2187ZM63.9541 29.755V15.6128H65.8104V29.755H63.9541Z" fill="#155EEF"/>
<path d="M52.9605 29.755L45.7041 9.95605H47.8416L53.973 27.1246L60.1044 9.95605H62.2419L54.9855 29.755H52.9605Z" fill="#155EEF"/>
</svg>
